<?xml version="1.0" encoding="utf-8"?>
<!-- Generator: Adobe Illustrator 19.2.1, SVG Export Plug-In . SVG Version: 6.00 Build 0)  -->
<svg version="1.1" id="Layer_1" xmlns="http://www.w3.org/2000/svg" xmlns:xlink="http://www.w3.org/1999/xlink" x="0px" y="0px"
	 viewBox="0 0 50 50" style="enable-background:new 0 0 50 50;" xml:space="preserve">
<path d="M39.2,9H10.8C9.8,9,9,9.8,9,10.8v28.5c0,1,0.8,1.8,1.8,1.8h15.5V29.1h-4.8v-5.5h4.8v-4.1c0-4.7,2.9-7.3,7.1-7.3
	c2,0,3.8,0.2,4.3,0.2v4.9l-2.9,0c-2.3,0-2.7,1.1-2.7,2.7v3.5h5.5l-0.7,5.5h-4.8V41h7.3c1,0,1.8-0.8,1.8-1.8V10.8
	C41,9.8,40.2,9,39.2,9z"/>
</svg>
