<?xml version="1.0" encoding="utf-8"?>
<!-- Generator: Adobe Illustrator 19.2.1, SVG Export Plug-In . SVG Version: 6.00 Build 0)  -->
<svg version="1.1" id="Layer_1" xmlns="http://www.w3.org/2000/svg" xmlns:xlink="http://www.w3.org/1999/xlink" x="0px" y="0px"
	 viewBox="0 0 50 50" style="enable-background:new 0 0 50 50;" xml:space="preserve">
<g>
	<path d="M38.6,9H11.4C10.1,9,9,10,9,11.3v27.4C9,40,10.1,41,11.4,41h27.3c1.3,0,2.4-1,2.4-2.3V11.3C41,10,39.9,9,38.6,9z
		 M18.5,36.3h-4.7V21h4.7V36.3z M16.1,18.9c-1.5,0-2.8-1.2-2.8-2.8c0-1.5,1.2-2.8,2.8-2.8c1.5,0,2.8,1.2,2.8,2.8
		C18.9,17.7,17.6,18.9,16.1,18.9z M36.3,36.3h-4.7v-7.4c0-1.8,0-4-2.5-4c-2.5,0-2.8,1.9-2.8,3.9v7.6h-4.7V21H26v2.1h0.1
		c0.6-1.2,2.2-2.5,4.5-2.5c4.8,0,5.7,3.2,5.7,7.3V36.3z"/>
</g>
</svg>
