<?xml version="1.0" encoding="utf-8"?>
<!-- Generator: Adobe Illustrator 19.2.1, SVG Export Plug-In . SVG Version: 6.00 Build 0)  -->
<svg version="1.1" id="Layer_1" xmlns="http://www.w3.org/2000/svg" xmlns:xlink="http://www.w3.org/1999/xlink" x="0px" y="0px"
	 viewBox="0 0 50 50" style="enable-background:new 0 0 50 50;" xml:space="preserve">
<path d="M42.4,14.7c-1.2,0.5-2.5,0.9-3.8,1.1c1.4-0.8,2.4-2.1,2.9-3.7c-1.3,0.8-2.7,1.3-4.2,1.6c-1.2-1.3-2.9-2.1-4.9-2.1
	c-3.7,0-6.7,3-6.7,6.7c0,0.5,0.1,1,0.2,1.5c-5.5-0.3-10.5-2.9-13.7-7c-0.6,1-0.9,2.1-0.9,3.4c0,2.3,1.2,4.4,3,5.6
	c-1.1,0-2.1-0.3-3-0.8c0,0,0,0.1,0,0.1c0,3.2,2.3,5.9,5.3,6.5c-0.6,0.2-1.1,0.2-1.8,0.2c-0.4,0-0.8,0-1.3-0.1
	c0.8,2.6,3.3,4.6,6.2,4.6c-2.3,1.8-5.2,2.9-8.3,2.9c-0.5,0-1.1,0-1.6-0.1c3,1.9,6.5,3,10.2,3c12.3,0,19-10.2,19-19
	c0-0.3,0-0.6,0-0.9C40.3,17.2,41.5,16,42.4,14.7z"/>
</svg>
